<?xml version="1.0" standalone="no"?><!DOCTYPE svg PUBLIC "-//W3C//DTD SVG 1.1//EN" "http://www.w3.org/Graphics/SVG/1.1/DTD/svg11.dtd"><svg t="1513427947796" class="icon" style="" viewBox="0 0 1024 1024" version="1.1" xmlns="http://www.w3.org/2000/svg" p-id="14618" xmlns:xlink="http://www.w3.org/1999/xlink" width="128" height="128"><defs><style type="text/css"></style></defs><path d="M392.64 676.692a10.338 10.338 0 0 0-8.169-2.48L235.757 693.78 358.853 553.7a10.349 10.349 0 0 0 2.285-9.256l-25.475-105.56c-1.188-4.924-5.783-8.274-10.82-7.889L74.742 449.52c-5.402 0.4-9.58 4.9-9.58 10.316v64.843a10.342 10.342 0 0 0 11.292 10.3l167.587-15.435 7.373 24.454L84.33 714.276a10.343 10.343 0 0 0-2.948 7.737l2.315 48.632a10.35 10.35 0 0 0 3.526 7.297 10.35 10.35 0 0 0 7.706 2.515l291.79-25.474a10.344 10.344 0 0 0 9.443-10.305v-60.21a10.336 10.336 0 0 0-3.523-7.776z m-17.164 58.506l-271.625 23.714-1.59-33.372 168.205-171.425a10.34 10.34 0 0 0 2.52-10.23l-11.579-38.403c-1.42-4.708-5.96-7.777-10.852-7.315L85.849 513.338v-43.895l231.766-17.167 22.154 91.803L202.05 700.798a10.343 10.343 0 0 0 9.119 17.084l164.307-21.62v38.936zM698.916 479.536l-117.465 6.64L686.77 382.923a10.344 10.344 0 0 0 2.965-9.06l-14.363-87.635a10.343 10.343 0 0 0-10.204-8.67l-205.095-0.085h-0.004a10.343 10.343 0 0 0-10.315 9.575l-3.94 52.882c-0.216 2.9 0.8 5.758 2.797 7.871a10.317 10.317 0 0 0 7.7 3.24l136.072-2.383 3.952 17.798L450.568 494.44a10.348 10.348 0 0 0-3.516 7.497l-1.065 39.803a10.344 10.344 0 0 0 10.34 10.621c0.044 0 0.088 0 0.133-0.002l239.514-3.05a10.343 10.343 0 0 0 10.182-9.573l3.657-49.105a10.334 10.334 0 0 0-2.936-8.016 10.35 10.35 0 0 0-7.961-3.08z m-12.685 49.208l-219.275 2.793 0.657-24.53 146.972-129.044a10.344 10.344 0 0 0 3.272-10.015l-7.11-32.023c-1.064-4.8-5.38-8.198-10.278-8.1l-133.18 2.33 2.382-31.993 186.708 0.076 12.074 73.67L547.316 490.67a10.343 10.343 0 0 0-2.22 11.567 10.36 10.36 0 0 0 10.044 6.147l133.168-7.529-2.077 27.89zM946.244 314.82a7.83 7.83 0 0 0-5.872-2.555l-72.382 1.094 67.94-61.306a7.758 7.758 0 0 0 2.504-6.697l-6.875-56.493a7.756 7.756 0 0 0-7.377-6.814l-131.317-5.488c-4.067-0.191-7.562 2.82-8.03 6.855l-3.924 33.755a7.76 7.76 0 0 0 7.521 8.651l86.266 2.058 1.778 9.935-96.201 77.665a7.76 7.76 0 0 0-2.868 5.508l-1.737 25.456a7.762 7.762 0 0 0 1.994 5.743 7.768 7.768 0 0 0 5.523 2.541l153.436 4.392a7.758 7.758 0 0 0 7.929-6.86l3.643-31.342a7.753 7.753 0 0 0-1.951-6.099z m-16.283 28.587L791.7 339.45l0.957-14.025 97.137-78.42a7.759 7.759 0 0 0 2.764-7.402l-3.702-20.693a7.759 7.759 0 0 0-7.451-6.39l-84.099-2.005 2.11-18.15 117.536 4.911 5.593 45.956-80.271 72.436a7.758 7.758 0 0 0 5.195 13.518h0.119l84.175-1.273-1.802 15.495z" fill="#ffffff" p-id="14619"></path></svg>